PathFileType	4	(X/Y/Z)	Patient4_TMGait_0pt7_02_left_04.trc.trc
DataRate	CameraRate	NumFrames	NumMarkers	Units	OrigDataRate	OrigDataStartFrame	OrigNumFrames
85.365853658537	85.365853658537	6	33	mm	85.365853658537	89	       141
Frame#	Time	Sacral			L.Shoulder			Chest			R.Shoulder			Neck			R.ASIS			L.ASIS			R.Thigh.Superior			R.Thigh.Lateral			R.Thigh.Inferior			R.Patella			L.Thigh.Superior			L.Thigh.Lateral			L.Thigh.Inferior			L.Patella			L.Shank.Superior			L.Shank.Lateral			L.Shank.Inferior			R.Shank.Superior			R.Shank.Lateral			R.Shank.Inferior			R.Heel			R.Midfoot.Superior			R.Midfoot.Lateral			R.Toe			L.Heel			L.Midfoot.Lateral			L.Midfoot.Superior			L.Toe			L.Elbow			L.Wrist			R.Elbow			R.Wrist			
		X1	Y1	Z1	X2	Y2	Z2	X3	Y3	Z3	X4	Y4	Z4	X5	Y5	Z5	X6	Y6	Z6	X7	Y7	Z7	X8	Y8	Z8	X9	Y9	Z9	X10	Y10	Z10	X11	Y11	Z11	X12	Y12	Z12	X13	Y13	Z13	X14	Y14	Z14	X15	Y15	Z15	X16	Y16	Z16	X17	Y17	Z17	X18	Y18	Z18	X19	Y19	Z19	X20	Y20	Z20	X21	Y21	Z21	X22	Y22	Z22	X23	Y23	Z23	X24	Y24	Z24	X25	Y25	Z25	X26	Y26	Z26	X27	Y27	Z27	X28	Y28	Z28	X29	Y29	Z29	X30	Y30	Z30	X31	Y31	Z31	X32	Y32	Z32	X33	Y33	Z33	

89	5.190857142857	856.364231320591	1012.116309351310	479.950177321050	1067.658363633640	1424.468502749677	289.914008173323	1165.466899458767	1347.633031243432	451.679724057295	1089.285642283055	1433.293536807076	623.104302198102	1074.186523776046	1485.787817808269	442.704878002872	1081.836636724786	935.230387481886	594.355219384173	1061.014486248193	951.072996433130	320.670501913117	1138.838295803121	749.287306892821	566.146165697150	1068.130002565282	634.846632387743	626.758129144545	1150.074795629590	589.419017350650	546.378743418255	1161.504678410965	501.203363647391	554.335181090430	1088.416806590444	733.202454840871	334.530290052828	989.340189695784	627.630367413660	270.450231702683	1073.850205694858	535.131346501553	318.204003854758	1059.803337718671	451.081762310163	314.033416242463	987.511909471374	398.670457183034	313.559336801636	841.865011044913	364.225071183634	275.547101372034	824.319135138174	236.160220377894	331.178970868379	1138.774931891424	411.627449368688	560.971020000973	1074.808065752725	303.304132231325	621.941907526414	1123.655429356685	211.234658870279	559.218891700120	998.899773045385	43.821668304870	531.381253052419	1172.663709256724	98.903090380333	563.082149871896	1084.076502222418	37.680143721061	602.905812291810	1292.350397212461	41.836901176733	587.075854101524	633.113954771798	185.556258548174	378.850973199138	682.510260806009	127.205841678612	302.892178442483	787.417908530021	128.225683979853	319.605998664027	855.290553444198	29.121776929366	304.334823102625	1021.564087791277	1079.419574007228	168.795637119939	1237.856105167981	936.506643477316	177.844313857452	978.688126215922	1105.983692024668	748.641183044830	988.430773989574	843.400014423292	745.952595824369	
90	5.202571428571	856.763607388960	1013.576522706121	482.702081004007	1067.825639741081	1425.506752899285	291.597021514647	1166.249939049621	1348.854067502609	453.080471403001	1090.726567279109	1434.674306400894	624.677254340999	1074.755725909644	1486.940037468312	444.427039710423	1082.267795324834	936.627424015690	596.645409056699	1061.455740518230	952.129969347029	323.208758538777	1136.598217072300	748.493367548648	568.849439887261	1064.063521674799	635.270957552017	629.001009225009	1144.952985010762	588.746608489536	548.152648533575	1155.059570837031	500.766952151137	555.623918972775	1094.056725896436	736.503956261755	337.469956146867	1000.144862098150	628.393524903013	271.437959925885	1087.077165614158	537.964920517398	320.104961941374	1074.471105378529	452.748387883248	315.218100567911	1000.595166969208	400.316471387758	314.231633851821	853.997190928851	370.603429689823	275.270430519781	832.174128863686	243.069798407783	330.579691969928	1132.178216816500	411.538781151110	562.275136332268	1067.808622142833	303.364903446694	623.010324212320	1116.260014818063	211.291255801071	559.885743491639	990.906790959229	43.901017534618	531.583760483249	1164.693593819711	99.082771465853	563.431183311173	1076.059708358946	37.669317932067	603.087390983140	1284.314347257550	41.722186134198	587.366374183883	639.864166985994	203.123687629512	377.194871403237	685.609515826568	140.903713787629	301.714153198910	790.552079993465	134.600468238133	318.924389272948	850.332275175321	27.844716887059	304.273052229835	1016.743350703635	1079.445561506652	174.575526439269	1221.971126961490	919.635857875229	180.262791708905	987.449234217886	1104.906907485855	751.743416910143	1011.865471692677	843.180338290893	746.276927244124	
91	5.214285714286	856.968039791995	1014.942444185794	485.355245393774	1067.717940785766	1426.332256365893	293.116702708352	1166.876925547610	1349.922360823460	454.280476877049	1092.108776308349	1435.914115148358	626.094900486786	1075.156763596020	1487.950310437301	446.001688499772	1082.480545251863	937.829901622574	598.779087763109	1061.709767069299	953.061375096287	325.656327736625	1134.133104503844	747.622882845584	571.613396200606	1059.721053293717	635.574589070702	631.146670843124	1139.710239653530	588.061425909603	549.960827674826	1148.471493109000	500.332559553745	556.882440395174	1099.463982026129	740.066397185930	340.544561555140	1010.818373852838	629.608525388813	272.540882039534	1099.923843755111	541.382082559451	322.415384370894	1088.974728754240	455.082772441483	316.943969223020	1013.830162843795	402.419086506865	315.265527167860	866.618212091337	376.850113758395	275.052006585003	840.901850147979	249.923516974234	330.164237782507	1125.464747823823	411.428970474834	563.519310386247	1060.662772479133	303.395119901222	623.985626183911	1108.781477062974	211.329708275175	560.515525808069	982.848643130338	43.988046611999	531.739423080062	1156.617119342344	99.154419163702	563.740428552452	1067.972748037853	37.647370711923	603.228171947318	1276.210570954910	41.561819079240	587.597023046899	647.963802721143	219.581642631238	375.464708518014	690.385804429797	154.044307474320	300.453451506014	795.065282214239	141.181876278071	318.291016042455	847.218293243423	27.019931317975	304.155258233423	1012.315851534704	1079.350359827469	180.042908983275	1204.715387920754	903.215039846515	182.763715723556	996.178281957422	1103.982497195729	754.820972794122	1036.022293337860	844.110448098737	746.146704253979	
92	5.226000000000	856.977915981474	1016.208971759802	487.875475823262	1067.371710316163	1426.947443504200	294.470451093508	1167.349667370688	1350.821722295595	455.286996383914	1093.431169316314	1437.012828336689	627.353302870770	1075.425308580540	1488.820399630402	447.416763973974	1082.468564277521	938.848757668402	600.778790699615	1061.754253739774	953.864898758702	327.990005764931	1131.553673968558	746.758802417263	574.353963298678	1055.271441445893	635.798053161503	633.170538687508	1134.502917547821	587.399905108873	551.771863063219	1141.909243179290	499.913730419695	558.117982383623	1104.570185685892	743.867734967746	343.717590717296	1021.213802401607	631.289967302803	273.762179144012	1112.267655613884	545.360601566570	325.045704410901	1103.183546549987	458.065009334360	319.082283384415	1027.081871453606	404.966718573833	316.589740853588	879.546672336484	382.829282497765	274.916003629070	850.469263868468	256.493419870549	329.903591991834	1118.771229603111	411.301962482675	564.695065893596	1053.490923840336	303.418719795255	624.876551571426	1101.282890024900	211.351661282163	561.103113516972	974.725489802596	44.099934533289	531.867325098154	1148.451693921387	99.127192760106	564.016878240860	1059.819174008035	37.629209734669	603.342943881063	1268.045632468842	41.361882945954	587.783635453057	657.235709894920	234.232850374653	373.687448618878	696.893350503326	166.026890016025	299.119996674209	801.122777523047	147.683405678320	317.672953727400	846.564252150225	26.799710952361	303.956515419703	1008.212422143271	1079.137138166348	185.148079771721	1186.156334149912	887.593577083035	185.349952425741	1004.947836633501	1103.172732701587	757.831379628292	1060.778532324539	846.315864439861	745.485739580593	
93	5.237714285714	856.797614833823	1017.374548315700	490.243863115521	1066.835981652732	1427.367206901243	295.658679442373	1167.672295772974	1351.547717757331	456.114537049709	1094.683866453095	1437.983180335809	628.449344868070	1075.595318277398	1489.557430449258	448.658129575455	1082.236385818979	939.704117182742	602.671756146964	1061.576659838824	954.550757403252	330.192876217499	1128.955346129193	745.963306447590	576.983264736613	1050.860469422838	635.973079196332	635.051512267626	1129.456887200023	586.785613082350	553.545457835749	1135.519707263763	499.514372172797	559.323323449531	1109.321262048395	747.880619079691	346.947538815730	1031.210576178455	633.433870106474	275.088574761099	1124.024242389791	549.862667777867	327.884748034116	1116.996531031186	461.665614390806	321.486160909490	1040.248818206784	407.935777295011	318.112833231525	892.629312358743	388.403119687730	274.878366796614	860.871397705028	262.547752808373	329.759058105711	1112.213964807489	411.157662939985	565.792269226184	1046.397051967250	303.453937657721	625.689374444963	1093.820658767791	211.357881590666	561.642846247610	966.547342479812	44.248307627256	531.983252089929	1140.227792706562	99.027424242122	564.266076070429	1051.612320799354	37.626641636041	603.443533980869	1259.833266491009	41.136331942199	587.943842753364	667.524375346443	246.448554816681	371.901622157197	705.174937806321	176.297289460939	297.727483050243	808.891666463562	153.798510153873	317.037869044890	848.967191262882	27.254985263525	303.634399309407	1004.328024009453	1078.838246353853	189.856146914698	1166.415095569455	873.106428864704	188.020832814148	1013.832390581847	1102.459714428939	760.728971168255	1086.010323192860	849.923415371560	744.227356099095	
94	5.249428571429	856.435550770444	1018.439051531040	492.455352573601	1066.163747888482	1427.612885262447	296.685876682484	1167.850941697541	1352.105227885456	456.783678117094	1095.849870354548	1438.844029349723	629.383498161924	1075.694922968640	1490.170108942423	449.714433438302	1081.799852201991	940.419246281512	604.482076622663	1061.176779924591	955.139023096925	332.254485528280	1126.410254239743	745.271597672697	579.423443454110	1046.602892441577	636.119688275378	636.772161786922	1124.663559832998	586.229231902881	555.237597282767	1129.418834454629	499.128684958393	560.479723692132	1113.677816715264	752.072400533704	350.188033880646	1040.714322936693	636.017030495568	276.492536109536	1135.140244094584	554.836314109640	330.812270233172	1130.338227156124	465.846489931939	324.007533210502	1053.261867271675	411.289365723151	319.734245560111	905.747243753677	393.433076208643	274.944982341897	872.129636881433	267.863698774716	329.687375004434	1105.881743333663	410.990732748783	566.799314740644	1039.462156012256	303.511403324269	626.427463402090	1086.440055976159	211.346305957833	562.128193243526	958.329151091166	44.438807319257	532.098066082833	1131.978796334087	98.888257321462	564.491806831210	1043.369957260997	37.647882774613	603.537998021657	1251.590050863498	40.901189607992	588.093025714200	678.729258107379	255.721137224086	370.159892633626	715.262360963327	184.395798639525	296.294788291283	818.522435912971	159.223773599097	316.352779532678	854.921337517387	28.346007343190	303.123305112832	1000.529777476203	1078.505656238262	194.146597915658	1145.667937814651	860.051751936348	190.770759221922	1022.898415555317	1101.842949196164	763.468214166169	1111.584799826770	855.053805704638	742.317727371110	
